<?xml version="1.0" encoding="utf-8"?>
<svg viewBox="-243 2 1200 700" xmlns="http://www.w3.org/2000/svg" xmlns:bx="https://boxy-svg.com">
  <g transform="matrix(1.533386, 0, 0, 1.49738, -242.582397, -248.723251)">
    <path d="M 213.954 386.92 L 214.003 386.869 L 214.031 386.839 L 214.041 386.829 L 214.075 386.794 L 214.082 386.789 L 214.092 386.777 C 214.186 386.714 214.201 386.673 214.257 386.617 C 223.596 376.911 228.977 363.614 229.179 349.876 L 244.067 349.986 C 244.775 349.985 245.43 349.537 245.678 348.874 C 245.947 348.197 245.816 347.413 245.302 346.882 L 220.965 321.587 C 220.282 320.877 219.17 320.882 218.496 321.582 L 194.451 346.57 L 194.397 346.628 C 193.714 347.338 193.714 348.487 194.397 349.197 C 194.855 349.673 195.503 349.829 196.088 349.671 L 210.759 349.764 C 210.606 358.592 207.249 366.834 201.06 373.262 C 188.361 386.304 167.737 386.243 154.911 372.913 C 150.983 376.997 150.7 377.662 142.066 386.635 C 161.806 407.151 194.025 407.28 213.954 386.92" style="stroke-width: 1.716;" bx:origin="0.5 0.5"/>
    <path d="M 140.698 312.453 L 140.645 312.505 L 140.619 312.535 L 140.608 312.547 L 140.578 312.579 L 140.57 312.587 L 140.56 312.6 C 140.464 312.652 140.454 312.699 140.4 312.754 C 131.056 322.465 125.675 335.748 125.475 349.49 L 110.588 349.385 C 109.876 349.385 109.223 349.838 108.974 350.501 C 108.703 351.174 108.844 351.965 109.348 352.486 L 133.689 377.786 C 134.371 378.494 135.479 378.491 136.158 377.786 L 160.194 352.804 L 160.251 352.745 C 160.933 352.036 160.933 350.885 160.251 350.177 C 159.79 349.698 159.14 349.542 158.568 349.714 L 143.892 349.607 C 144.038 340.782 147.403 332.547 153.59 326.117 C 166.287 313.065 186.912 313.131 199.734 326.457 C 203.575 322.467 208.351 317.125 212.575 312.733 C 192.847 292.229 160.628 292.096 140.698 312.453" style="stroke-width: 1.716;" bx:origin="0.5 0.5"/>
  </g>
  <g transform="matrix(1.533386, 0, 0, 1.49738, 189.480911, -139.712341)">
    <path d="M 213.954 386.92 L 214.003 386.869 L 214.031 386.839 L 214.041 386.829 L 214.075 386.794 L 214.082 386.789 L 214.092 386.777 C 214.186 386.714 214.201 386.673 214.257 386.617 C 223.596 376.911 228.977 363.614 229.179 349.876 L 244.067 349.986 C 244.775 349.985 245.43 349.537 245.678 348.874 C 245.947 348.197 245.816 347.413 245.302 346.882 L 220.965 321.587 C 220.282 320.877 219.17 320.882 218.496 321.582 L 194.451 346.57 L 194.397 346.628 C 193.714 347.338 193.714 348.487 194.397 349.197 C 194.855 349.673 195.503 349.829 196.088 349.671 L 210.759 349.764 C 210.606 358.592 207.249 366.834 201.06 373.262 C 188.361 386.304 167.737 386.243 154.911 372.913 C 150.983 376.997 150.7 377.662 142.066 386.635 C 161.806 407.151 194.025 407.28 213.954 386.92" style="stroke-width: 1.716;" bx:origin="0.5 0.5"/>
    <path d="M 140.698 312.453 L 140.645 312.505 L 140.619 312.535 L 140.608 312.547 L 140.578 312.579 L 140.57 312.587 L 140.56 312.6 C 140.464 312.652 140.454 312.699 140.4 312.754 C 131.056 322.465 125.675 335.748 125.475 349.49 L 110.588 349.385 C 109.876 349.385 109.223 349.838 108.974 350.501 C 108.703 351.174 108.844 351.965 109.348 352.486 L 133.689 377.786 C 134.371 378.494 135.479 378.491 136.158 377.786 L 160.194 352.804 L 160.251 352.745 C 160.933 352.036 160.933 350.885 160.251 350.177 C 159.79 349.698 159.14 349.542 158.568 349.714 L 143.892 349.607 C 144.038 340.782 147.403 332.547 153.59 326.117 C 166.287 313.065 186.912 313.131 199.734 326.457 C 203.575 322.467 208.351 317.125 212.575 312.733 C 192.847 292.229 160.628 292.096 140.698 312.453" style="stroke-width: 1.716;" bx:origin="0.5 0.5"/>
  </g>
  <g transform="matrix(1.533386, 0, 0, 1.49738, 625.522827, -224.056198)">
    <path d="M 213.954 386.92 L 214.003 386.869 L 214.031 386.839 L 214.041 386.829 L 214.075 386.794 L 214.082 386.789 L 214.092 386.777 C 214.186 386.714 214.201 386.673 214.257 386.617 C 223.596 376.911 228.977 363.614 229.179 349.876 L 244.067 349.986 C 244.775 349.985 245.43 349.537 245.678 348.874 C 245.947 348.197 245.816 347.413 245.302 346.882 L 220.965 321.587 C 220.282 320.877 219.17 320.882 218.496 321.582 L 194.451 346.57 L 194.397 346.628 C 193.714 347.338 193.714 348.487 194.397 349.197 C 194.855 349.673 195.503 349.829 196.088 349.671 L 210.759 349.764 C 210.606 358.592 207.249 366.834 201.06 373.262 C 188.361 386.304 167.737 386.243 154.911 372.913 C 150.983 376.997 150.7 377.662 142.066 386.635 C 161.806 407.151 194.025 407.28 213.954 386.92" style="stroke-width: 1.716;" bx:origin="0.5 0.5"/>
    <path d="M 140.698 312.453 L 140.645 312.505 L 140.619 312.535 L 140.608 312.547 L 140.578 312.579 L 140.57 312.587 L 140.56 312.6 C 140.464 312.652 140.454 312.699 140.4 312.754 C 131.056 322.465 125.675 335.748 125.475 349.49 L 110.588 349.385 C 109.876 349.385 109.223 349.838 108.974 350.501 C 108.703 351.174 108.844 351.965 109.348 352.486 L 133.689 377.786 C 134.371 378.494 135.479 378.491 136.158 377.786 L 160.194 352.804 L 160.251 352.745 C 160.933 352.036 160.933 350.885 160.251 350.177 C 159.79 349.698 159.14 349.542 158.568 349.714 L 143.892 349.607 C 144.038 340.782 147.403 332.547 153.59 326.117 C 166.287 313.065 186.912 313.131 199.734 326.457 C 203.575 322.467 208.351 317.125 212.575 312.733 C 192.847 292.229 160.628 292.096 140.698 312.453" style="stroke-width: 1.716;" bx:origin="0.5 0.5"/>
  </g>
  <path d="M -129.37 171.937 C -129.681 172.077 -129.888 172.435 -129.888 173.005 L -129.888 185.95 L -213.346 185.95 L -213.346 208.754 L -129.888 208.754 L -129.888 222.414 C -129.888 223.174 -129.033 223.626 -128.202 223.246 L -82.125 198.542 C -81.294 197.782 -81.294 196.999 -82.125 196.999 L -128.202 172.294 C -128.618 171.914 -129.058 171.796 -129.37 171.937 Z" style="stroke-width: 3.995;" bx:origin="0.5 0.5"/>
  <path d="M 236.002 296.065 C 235.702 296.205 235.503 296.563 235.503 297.133 L 235.503 310.078 L 155.062 310.078 L 155.062 332.882 L 235.503 332.882 L 235.503 346.542 C 235.503 347.302 236.327 347.754 237.128 347.374 L 281.539 322.67 C 282.339 321.91 282.339 321.127 281.539 321.127 L 237.128 296.422 C 236.727 296.042 236.303 295.924 236.002 296.065 Z" style="stroke-width: 3.916;" bx:origin="0.5 0.5"/>
  <path d="M 281.86 404.28 C 281.537 404.42 281.323 404.778 281.323 405.348 L 281.323 418.293 L 194.847 418.293 L 194.847 441.097 L 281.323 441.097 L 281.323 454.757 C 281.323 455.517 282.209 455.969 283.07 455.589 L 330.813 430.885 C 331.673 430.125 331.673 429.342 330.813 429.342 L 283.07 404.637 C 282.639 404.257 282.183 404.139 281.86 404.28 Z" style="stroke-width: 4.074;" bx:origin="0.5 0.5"/>
  <path d="M 713.567 226.045 C 713.278 226.185 713.086 226.543 713.086 227.113 L 713.086 240.058 L 635.663 240.058 L 635.663 262.862 L 713.086 262.862 L 713.086 276.522 C 713.086 277.282 713.88 277.734 714.651 277.354 L 757.396 252.65 C 758.166 251.89 758.166 251.107 757.396 251.107 L 714.651 226.402 C 714.265 226.022 713.856 225.904 713.567 226.045 Z" style="stroke-width: 3.837;" bx:origin="0.5 0.5"/>
  <path d="M 674.794 339.033 C 674.501 339.173 674.307 339.531 674.307 340.101 L 674.307 353.046 L 595.878 353.046 L 595.878 375.85 L 674.307 375.85 L 674.307 389.51 C 674.307 390.27 675.111 390.722 675.892 390.342 L 719.193 365.638 C 719.973 364.878 719.973 364.095 719.193 364.095 L 675.892 339.39 C 675.501 339.01 675.087 338.892 674.794 339.033 Z" style="stroke-width: 3.864;" bx:origin="0.5 0.5"/>
</svg>