<?xml version="1.0" encoding="UTF-8" standalone="no" ?>
<svg width="256px" height="270px" viewBox="0 0 256 270" version="1.1" xmlns="http://www.w3.org/2000/svg" preserveAspectRatio="xMinYMin meet">
    <g id="logo1">
        <path style="fill: rgb(83, 130, 161); stroke-width: 0.676;" d="M 104.718 196.835 C 104.718 196.835 95.284 202.479 111.435 204.389 C 130.999 206.685 140.998 206.356 162.56 202.159 C 162.56 202.159 168.229 205.815 176.145 208.981 C 127.812 230.288 66.755 207.747 104.718 196.835"/>
        <path style="fill: rgb(83, 130, 161); stroke-width: 0.676;" d="M 98.813 169.032 C 98.813 169.032 88.229 177.089 104.393 178.808 C 125.292 181.026 141.798 181.207 170.359 175.551 C 170.359 175.551 174.31 179.67 180.522 181.923 C 122.08 199.499 56.991 183.309 98.813 169.032"/>
        <path style="fill: rgb(231, 111, 0); stroke-width: 0.676;" d="M 148.604 121.867 C 160.513 135.97 145.474 148.662 145.474 148.662 C 145.474 148.662 175.715 132.605 161.826 112.498 C 148.857 93.747 138.909 84.43 192.758 52.308 C 192.759 52.307 108.233 74.021 148.604 121.867"/>
        <path style="fill: rgb(83, 130, 161); stroke-width: 0.676;" d="M 212.53 217.401 C 212.53 217.401 219.513 223.32 204.842 227.896 C 176.941 236.59 88.72 239.215 64.213 228.244 C 55.404 224.301 71.924 218.83 77.121 217.683 C 82.54 216.474 85.637 216.699 85.637 216.699 C 75.84 209.601 22.312 230.637 58.447 236.663 C 156.996 253.101 238.094 229.261 212.53 217.401"/>
        <path style="fill: rgb(83, 130, 161); stroke-width: 0.676;" d="M 109.256 140.224 C 109.256 140.224 64.381 151.187 93.366 155.167 C 105.604 156.853 129.999 156.471 152.72 154.513 C 171.292 152.902 189.94 149.476 189.94 149.476 C 189.94 149.476 183.392 152.361 178.655 155.687 C 133.085 168.015 45.054 162.28 70.397 149.67 C 91.83 139.015 109.256 140.224 109.256 140.224"/>
        <path style="fill: rgb(83, 130, 161); stroke-width: 0.676;" d="M 189.756 186.505 C 236.079 161.746 214.662 137.952 199.713 141.159 C 196.048 141.943 194.414 142.623 194.414 142.623 C 194.414 142.623 195.775 140.431 198.371 139.482 C 227.946 128.788 250.691 171.024 188.824 187.753 C 188.824 187.753 189.542 187.095 189.756 186.505"/>
        <path style="fill: rgb(231, 111, 0); stroke-width: 0.676;" d="M 161.826 0.438 C 161.826 0.438 187.481 26.833 137.496 67.424 C 97.41 99.983 128.354 118.547 137.478 139.759 C 114.081 118.045 96.911 98.931 108.429 81.142 C 125.337 55.027 172.179 42.366 161.826 0.438" />
        <path style="fill: rgb(83, 130, 161); stroke-width: 0.676;" d="M 113.807 253.595 C 158.273 256.523 226.553 251.971 228.17 230.332 C 228.17 230.332 225.063 238.534 191.423 245.05 C 153.471 252.395 106.663 251.539 78.9 246.831 C 78.901 246.829 84.585 251.668 113.807 253.595"/>
    </g>
    <g id="logo2">
        <path d="M0,0 L256,0 L256,256 L0,256 L0,0 Z" style="fill: rgb(247, 223, 30);"/>
        <path d="M67.311746,213.932292 L86.902654,202.076241 C90.6821079,208.777346 94.1202286,214.447137 102.367086,214.447137 C110.272203,214.447137 115.256076,211.354819 115.256076,199.326883 L115.256076,117.528787 L139.313575,117.528787 L139.313575,199.666997 C139.313575,224.58433 124.707759,235.925943 103.3984,235.925943 C84.1532952,235.925943 72.9819429,225.958603 67.3113397,213.93026" style="fill: rgb(0, 0, 0);"/>
        <path d="M152.380952,211.354413 L171.969422,200.0128 C177.125994,208.433981 183.827911,214.619835 195.684368,214.619835 C205.652521,214.619835 212.009041,209.635962 212.009041,202.762159 C212.009041,194.513676 205.479416,191.592025 194.481168,186.78207 L188.468419,184.202565 C171.111213,176.81473 159.597308,167.53534 159.597308,147.944838 C159.597308,129.901308 173.344508,116.153295 194.825752,116.153295 C210.119924,116.153295 221.117765,121.48094 229.021663,135.400432 L210.29059,147.428775 C206.166146,140.040127 201.699556,137.119289 194.826159,137.119289 C187.78047,137.119289 183.312254,141.587098 183.312254,147.428775 C183.312254,154.646349 187.78047,157.568406 198.089956,162.036622 L204.103924,164.614095 C224.553448,173.378641 236.067352,182.313448 236.067352,202.418387 C236.067352,224.071924 219.055137,235.927975 196.200432,235.927975 C173.860978,235.927975 159.425829,225.274311 152.381359,211.354413" style="fill: rgb(0, 0, 0);"/>
    </g>
</svg>