<?xml version="1.0" encoding="utf-8"?>
<svg width="256px" height="270px" viewBox="-1 0 257 256" xmlns="http://www.w3.org/2000/svg">
  <g id="logo1">
    <path style="fill: rgb(83, 130, 161); stroke-width: 0.676;" d="M 104.718 196.835 C 104.718 196.835 95.284 202.479 111.435 204.389 C 130.999 206.685 140.998 206.356 162.56 202.159 C 162.56 202.159 168.229 205.815 176.145 208.981 C 127.812 230.288 66.755 207.747 104.718 196.835"/>
    <path style="fill: rgb(83, 130, 161); stroke-width: 0.676;" d="M 98.813 169.032 C 98.813 169.032 88.229 177.089 104.393 178.808 C 125.292 181.026 141.798 181.207 170.359 175.551 C 170.359 175.551 174.31 179.67 180.522 181.923 C 122.08 199.499 56.991 183.309 98.813 169.032"/>
    <path style="fill: rgb(231, 111, 0); stroke-width: 0.676;" d="M 148.604 121.867 C 160.513 135.97 145.474 148.662 145.474 148.662 C 145.474 148.662 175.715 132.605 161.826 112.498 C 148.857 93.747 138.909 84.43 192.758 52.308 C 192.759 52.307 108.233 74.021 148.604 121.867"/>
    <path style="fill: rgb(83, 130, 161); stroke-width: 0.676;" d="M 212.53 217.401 C 212.53 217.401 219.513 223.32 204.842 227.896 C 176.941 236.59 88.72 239.215 64.213 228.244 C 55.404 224.301 71.924 218.83 77.121 217.683 C 82.54 216.474 85.637 216.699 85.637 216.699 C 75.84 209.601 22.312 230.637 58.447 236.663 C 156.996 253.101 238.094 229.261 212.53 217.401"/>
    <path style="fill: rgb(83, 130, 161); stroke-width: 0.676;" d="M 109.256 140.224 C 109.256 140.224 64.381 151.187 93.366 155.167 C 105.604 156.853 129.999 156.471 152.72 154.513 C 171.292 152.902 189.94 149.476 189.94 149.476 C 189.94 149.476 183.392 152.361 178.655 155.687 C 133.085 168.015 45.054 162.28 70.397 149.67 C 91.83 139.015 109.256 140.224 109.256 140.224"/>
    <path style="fill: rgb(83, 130, 161); stroke-width: 0.676;" d="M 189.756 186.505 C 236.079 161.746 214.662 137.952 199.713 141.159 C 196.048 141.943 194.414 142.623 194.414 142.623 C 194.414 142.623 195.775 140.431 198.371 139.482 C 227.946 128.788 250.691 171.024 188.824 187.753 C 188.824 187.753 189.542 187.095 189.756 186.505"/>
    <path style="fill: rgb(231, 111, 0); stroke-width: 0.676;" d="M 161.826 0.438 C 161.826 0.438 187.481 26.833 137.496 67.424 C 97.41 99.983 128.354 118.547 137.478 139.759 C 114.081 118.045 96.911 98.931 108.429 81.142 C 125.337 55.027 172.179 42.366 161.826 0.438"/>
    <path style="fill: rgb(83, 130, 161); stroke-width: 0.676;" d="M 113.807 253.595 C 158.273 256.523 226.553 251.971 228.17 230.332 C 228.17 230.332 225.063 238.534 191.423 245.05 C 153.471 252.395 106.663 251.539 78.9 246.831 C 78.901 246.829 84.585 251.668 113.807 253.595"/>
  </g>
  <g id="logo2">
    <path d="M0,0 L256,0 L256,256 L0,256 L0,0 Z" style="fill: rgb(247, 223, 30);"/>
    <path d="M67.311746,213.932292 L86.902654,202.076241 C90.6821079,208.777346 94.1202286,214.447137 102.367086,214.447137 C110.272203,214.447137 115.256076,211.354819 115.256076,199.326883 L115.256076,117.528787 L139.313575,117.528787 L139.313575,199.666997 C139.313575,224.58433 124.707759,235.925943 103.3984,235.925943 C84.1532952,235.925943 72.9819429,225.958603 67.3113397,213.93026" style="fill: rgb(0, 0, 0);"/>
    <path d="M152.380952,211.354413 L171.969422,200.0128 C177.125994,208.433981 183.827911,214.619835 195.684368,214.619835 C205.652521,214.619835 212.009041,209.635962 212.009041,202.762159 C212.009041,194.513676 205.479416,191.592025 194.481168,186.78207 L188.468419,184.202565 C171.111213,176.81473 159.597308,167.53534 159.597308,147.944838 C159.597308,129.901308 173.344508,116.153295 194.825752,116.153295 C210.119924,116.153295 221.117765,121.48094 229.021663,135.400432 L210.29059,147.428775 C206.166146,140.040127 201.699556,137.119289 194.826159,137.119289 C187.78047,137.119289 183.312254,141.587098 183.312254,147.428775 C183.312254,154.646349 187.78047,157.568406 198.089956,162.036622 L204.103924,164.614095 C224.553448,173.378641 236.067352,182.313448 236.067352,202.418387 C236.067352,224.071924 219.055137,235.927975 196.200432,235.927975 C173.860978,235.927975 159.425829,225.274311 152.381359,211.354413" style="fill: rgb(0, 0, 0);"/>
  </g>
  <g id="logo3" transform="matrix(1.353793, 0, 0, 1.310912, -41.736904, -92.950256)">
    <path style="fill: rgb(153, 153, 153); stroke-width: 0.258;" d="M 171.535 73.383 C 182.14 60.207 196.885 60.143 196.885 60.143 C 196.885 60.143 199.078 72.531 188.541 84.464 C 177.291 97.206 164.504 95.121 164.504 95.121 C 164.504 95.121 162.103 85.1 171.535 73.383 Z"/>
    <path style="fill: rgb(153, 153, 153); stroke-width: 0.258;" d="M 165.853 103.798 C 171.309 103.798 181.435 96.729 194.617 96.729 C 217.305 96.729 226.231 111.946 226.231 111.946 C 226.231 111.946 208.774 120.358 208.774 140.771 C 208.774 163.8 230.521 171.735 230.521 171.735 C 230.521 171.735 215.319 212.065 194.785 212.065 C 185.355 212.065 178.022 206.075 168.085 206.075 C 157.96 206.075 147.91 212.288 141.365 212.288 C 122.615 212.289 98.927 174.032 98.927 143.28 C 98.927 113.025 118.977 97.153 137.784 97.153 C 150.01 97.153 159.497 103.798 165.853 103.798 Z"/>
    <path id="c-4-14-6-4-9" style="fill: rgb(164, 198, 57); stroke-width: 0.691;" d="M 56.454 205.819 L 56.454 205.819 C 62.082 205.819 66.643 210.053 66.643 215.279 L 66.643 255.864 C 66.643 261.089 62.082 265.324 56.454 265.324 L 56.454 265.324 C 50.828 265.324 46.265 261.089 46.265 255.864 L 46.265 215.279 C 46.265 210.053 50.828 205.819 56.454 205.819 Z"/>
    <path id="rect8719-3-2-7-4-3" style="fill: rgb(164, 198, 57); stroke-width: 0.691;" d="M 33.193 157.024 C 33.159 157.383 33.129 157.745 33.129 158.112 L 33.129 219.602 C 33.129 226.215 38.766 231.542 45.765 231.542 L 113.112 231.542 C 120.111 231.542 125.748 226.215 125.748 219.602 L 125.748 158.112 C 125.748 157.745 125.735 157.383 125.702 157.024 L 33.193 157.024 L 33.193 157.024 Z"/>
    <path id="c-4-8-9-1-4-9" style="fill: rgb(164, 198, 57); stroke-width: 0.691;" d="M 102.424 205.819 L 102.424 205.819 C 108.052 205.819 112.614 210.053 112.614 215.279 L 112.614 255.864 C 112.614 261.089 108.052 265.324 102.424 265.324 L 102.424 265.324 C 96.798 265.324 92.235 261.089 92.235 255.864 L 92.235 215.279 C 92.235 210.053 96.798 205.819 102.424 205.819 Z"/>
    <path id="c-4-9-2-9-2-9" style="fill: rgb(164, 198, 57); stroke-width: 0.691;" d="M 16.758 162.497 L 16.758 162.497 C 22.385 162.497 26.946 166.732 26.946 171.957 L 26.946 212.542 C 26.946 217.767 22.385 222.002 16.758 222.002 L 16.758 222.002 C 11.131 222.002 6.569 217.767 6.569 212.542 L 6.569 171.957 C 6.568 166.732 11.129 162.497 16.758 162.497 Z"/>
    <path id="c-4-1-7-3-8-4" style="fill: rgb(164, 198, 57); stroke-width: 0.691;" d="M 142.121 162.497 L 142.121 162.497 C 147.749 162.497 152.31 166.732 152.31 171.957 L 152.31 212.542 C 152.31 217.767 147.749 222.002 142.121 222.002 L 142.121 222.002 C 136.494 222.002 131.931 217.767 131.931 212.542 L 131.931 171.957 C 131.931 166.732 136.494 162.497 142.121 162.497 Z"/>
    <path id="path4090-4-4-4-8" style="fill: rgb(164, 198, 57); stroke-width: 0.691;" d="M 33.491 152.985 C 33.774 134.098 51.528 118.611 74.318 116.57 L 84.558 116.57 C 107.351 118.612 125.104 134.098 125.387 152.985 L 33.491 152.985 Z"/>
    <path id="path4160-1-3-5-6" style="fill: none; stroke: rgb(164, 198, 57); stroke-width: 2.072; stroke-linecap: round; stroke-linejoin: round;" d="M 37.034 114.747 L 47.784 132.034"/>
    <path id="path4160-9-0-1-7-9" style="fill: none; stroke: rgb(164, 198, 57); stroke-width: 2.072; stroke-linecap: round; stroke-linejoin: round;" d="M 121.845 114.747 L 111.096 132.034"/>
    <path id="path4109-7-3-2-5-7-2-0" style="fill: rgb(255, 255, 255); stroke-width: 0.691;" d="M 65.751 136.058 C 65.76 138.699 63.406 140.844 60.494 140.853 C 57.584 140.86 55.216 138.726 55.209 136.084 C 55.209 136.076 55.209 136.067 55.209 136.058 C 55.2 133.418 57.553 131.272 60.465 131.264 C 63.375 131.256 65.742 133.391 65.751 136.032 C 65.751 136.041 65.751 136.05 65.751 136.058 Z"/>
    <path id="path4109-0-0-3-1-5-0-0-0" style="fill: rgb(255, 255, 255); stroke-width: 0.691;" d="M 105.101 136.058 C 105.109 138.699 102.756 140.844 99.844 140.853 C 96.933 140.86 94.566 138.726 94.559 136.084 C 94.559 136.076 94.559 136.067 94.559 136.058 C 94.55 133.418 96.903 131.272 99.814 131.264 C 102.725 131.256 105.092 133.391 105.101 136.032 C 105.101 136.041 105.101 136.05 105.101 136.058 Z"/>
  </g>
</svg>