<?xml version="1.0" encoding="utf-8"?>
<svg viewBox="-243 2 1200 700" xmlns="http://www.w3.org/2000/svg" xmlns:bx="https://boxy-svg.com">
  <g transform="matrix(1.358546, 0, 0, 1.326517, 3.342339, -57.442223)">
    <path d="M 97.696 328.393 L 97.777 328.311 L 97.823 328.262 L 97.84 328.246 L 97.896 328.19 L 97.907 328.182 L 97.924 328.163 C 98.079 328.061 98.103 327.996 98.196 327.906 C 113.599 312.299 122.474 290.919 122.807 268.829 L 147.363 269.006 C 148.53 269.005 149.611 268.284 150.02 267.218 C 150.463 266.13 150.247 264.869 149.4 264.015 L 109.26 223.343 C 108.133 222.202 106.299 222.21 105.187 223.335 L 65.529 263.514 L 65.44 263.607 C 64.313 264.748 64.313 266.596 65.44 267.738 C 66.195 268.503 67.264 268.754 68.229 268.5 L 92.426 268.649 C 92.174 282.844 86.637 296.096 76.429 306.432 C 55.484 327.402 21.468 327.304 0.314 305.871 C -6.165 312.437 -6.631 313.507 -20.872 327.934 C 11.686 360.922 64.826 361.13 97.696 328.393" style="stroke-width: 1.716; fill: rgba(0, 0, 0, 0.219608);" bx:origin="0.5 0.5"/>
    <path d="M -23.128 208.657 L -23.215 208.74 L -23.258 208.788 L -23.276 208.808 L -23.326 208.859 L -23.339 208.872 L -23.356 208.893 C -23.514 208.977 -23.53 209.052 -23.62 209.141 C -39.031 224.755 -47.906 246.113 -48.236 268.209 L -72.79 268.04 C -73.964 268.04 -75.041 268.768 -75.452 269.834 C -75.899 270.916 -75.666 272.188 -74.835 273.026 L -34.688 313.706 C -33.563 314.844 -31.736 314.84 -30.616 313.706 L 9.027 273.537 L 9.122 273.442 C 10.246 272.302 10.246 270.452 9.122 269.313 C 8.361 268.543 7.289 268.292 6.346 268.569 L -17.86 268.397 C -17.619 254.207 -12.069 240.966 -1.865 230.627 C 19.077 209.641 53.095 209.747 74.242 231.174 C 80.578 224.758 88.455 216.169 95.422 209.107 C 62.883 176.138 9.743 175.924 -23.128 208.657" style="stroke-width: 1.716; fill: rgba(0, 0, 0, 0.219608);" bx:origin="0.5 0.5"/>
  </g>
  <path d="M -158.339 172.058 C -158.837 172.319 -159.169 172.984 -159.169 174.044 L -159.169 198.118 L -292.916 198.118 L -292.916 240.527 L -159.169 240.527 L -159.169 265.931 C -159.169 267.344 -157.799 268.185 -156.467 267.478 L -82.626 221.536 C -81.294 220.123 -81.294 218.666 -82.626 218.666 L -156.467 172.722 C -157.134 172.015 -157.839 171.796 -158.339 172.058 Z" style="stroke-width: 6.916; fill: rgba(0, 0, 0, 0.219608);" bx:origin="0.5 0.5"/>
  <g transform="matrix(1.358546, 0, 0, 1.326517, 508.903656, 128.428253)">
    <path d="M 97.696 328.393 L 97.777 328.311 L 97.823 328.262 L 97.84 328.246 L 97.896 328.19 L 97.907 328.182 L 97.924 328.163 C 98.079 328.061 98.103 327.996 98.196 327.906 C 113.599 312.299 122.474 290.919 122.807 268.829 L 147.363 269.006 C 148.53 269.005 149.611 268.284 150.02 267.218 C 150.463 266.13 150.247 264.869 149.4 264.015 L 109.26 223.343 C 108.133 222.202 106.299 222.21 105.187 223.335 L 65.529 263.514 L 65.44 263.607 C 64.313 264.748 64.313 266.596 65.44 267.738 C 66.195 268.503 67.264 268.754 68.229 268.5 L 92.426 268.649 C 92.174 282.844 86.637 296.096 76.429 306.432 C 55.484 327.402 21.468 327.304 0.314 305.871 C -6.165 312.437 -6.631 313.507 -20.872 327.934 C 11.686 360.922 64.826 361.13 97.696 328.393" style="stroke-width: 1.716; fill: rgba(0, 0, 0, 0.219608);" bx:origin="0.5 0.5"/>
    <path d="M -23.128 208.657 L -23.215 208.74 L -23.258 208.788 L -23.276 208.808 L -23.326 208.859 L -23.339 208.872 L -23.356 208.893 C -23.514 208.977 -23.53 209.052 -23.62 209.141 C -39.031 224.755 -47.906 246.113 -48.236 268.209 L -72.79 268.04 C -73.964 268.04 -75.041 268.768 -75.452 269.834 C -75.899 270.916 -75.666 272.188 -74.835 273.026 L -34.688 313.706 C -33.563 314.844 -31.736 314.84 -30.616 313.706 L 9.027 273.537 L 9.122 273.442 C 10.246 272.302 10.246 270.452 9.122 269.313 C 8.361 268.543 7.289 268.292 6.346 268.569 L -17.86 268.397 C -17.619 254.207 -12.069 240.966 -1.865 230.627 C 19.077 209.641 53.095 209.747 74.242 231.174 C 80.578 224.758 88.455 216.169 95.422 209.107 C 62.883 176.138 9.743 175.924 -23.128 208.657" style="stroke-width: 1.716; fill: rgba(0, 0, 0, 0.219608);" bx:origin="0.5 0.5"/>
  </g>
  <path d="M 291.523 431.132 C 291.025 431.393 290.693 432.058 290.693 433.118 L 290.693 457.192 L 156.947 457.192 L 156.947 499.601 L 290.693 499.601 L 290.693 525.005 C 290.693 526.418 292.064 527.259 293.396 526.552 L 367.236 480.61 C 368.568 479.197 368.568 477.74 367.236 477.74 L 293.396 431.796 C 292.728 431.089 292.023 430.87 291.523 431.132 Z" style="stroke-width: 6.916; fill: rgba(0, 0, 0, 0.219608);" bx:origin="0.5 0.5"/>
  <g transform="matrix(1.358546, 0, 0, 1.326517, 975.182068, -27.528334)">
    <path d="M 97.696 328.393 L 97.777 328.311 L 97.823 328.262 L 97.84 328.246 L 97.896 328.19 L 97.907 328.182 L 97.924 328.163 C 98.079 328.061 98.103 327.996 98.196 327.906 C 113.599 312.299 122.474 290.919 122.807 268.829 L 147.363 269.006 C 148.53 269.005 149.611 268.284 150.02 267.218 C 150.463 266.13 150.247 264.869 149.4 264.015 L 109.26 223.343 C 108.133 222.202 106.299 222.21 105.187 223.335 L 65.529 263.514 L 65.44 263.607 C 64.313 264.748 64.313 266.596 65.44 267.738 C 66.195 268.503 67.264 268.754 68.229 268.5 L 92.426 268.649 C 92.174 282.844 86.637 296.096 76.429 306.432 C 55.484 327.402 21.468 327.304 0.314 305.871 C -6.165 312.437 -6.631 313.507 -20.872 327.934 C 11.686 360.922 64.826 361.13 97.696 328.393" style="stroke-width: 1.716; fill: rgba(0, 0, 0, 0.219608);" bx:origin="0.5 0.5"/>
    <path d="M -23.128 208.657 L -23.215 208.74 L -23.258 208.788 L -23.276 208.808 L -23.326 208.859 L -23.339 208.872 L -23.356 208.893 C -23.514 208.977 -23.53 209.052 -23.62 209.141 C -39.031 224.755 -47.906 246.113 -48.236 268.209 L -72.79 268.04 C -73.964 268.04 -75.041 268.768 -75.452 269.834 C -75.899 270.916 -75.666 272.188 -74.835 273.026 L -34.688 313.706 C -33.563 314.844 -31.736 314.84 -30.616 313.706 L 9.027 273.537 L 9.122 273.442 C 10.246 272.302 10.246 270.452 9.122 269.313 C 8.361 268.543 7.289 268.292 6.346 268.569 L -17.86 268.397 C -17.619 254.207 -12.069 240.966 -1.865 230.627 C 19.077 209.641 53.095 209.747 74.242 231.174 C 80.578 224.758 88.455 216.169 95.422 209.107 C 62.883 176.138 9.743 175.924 -23.128 208.657" style="stroke-width: 1.716; fill: rgba(0, 0, 0, 0.219608);" bx:origin="0.5 0.5"/>
  </g>
  <path d="M 835.781 149.456 C 835.283 149.717 834.951 150.382 834.951 151.442 L 834.951 175.516 L 701.204 175.516 L 701.204 217.925 L 834.951 217.925 L 834.951 243.329 C 834.951 244.742 836.321 245.583 837.653 244.876 L 911.494 198.934 C 912.826 197.521 912.826 196.064 911.494 196.064 L 837.653 150.12 C 836.986 149.413 836.281 149.194 835.781 149.456 Z" style="stroke-width: 6.916; fill: rgba(0, 0, 0, 0.219608);" bx:origin="0.5 0.5"/>
  <path d="M 401.036 281.864 C 400.538 282.125 400.206 282.79 400.206 283.85 L 400.206 307.924 L 266.46 307.924 L 266.46 350.333 L 400.206 350.333 L 400.206 375.737 C 400.206 377.15 401.577 377.991 402.909 377.284 L 476.749 331.342 C 478.081 329.929 478.081 328.472 476.749 328.472 L 402.909 282.528 C 402.241 281.821 401.536 281.602 401.036 281.864 Z" style="stroke-width: 6.916; fill: rgba(0, 0, 0, 0.219608);" bx:origin="0.5 0.5"/>
  <path d="M 781.38 315.283 C 780.883 315.544 780.55 316.209 780.55 317.269 L 780.55 341.343 L 646.803 341.343 L 646.803 383.752 L 780.55 383.752 L 780.55 409.156 C 780.55 410.569 781.92 411.41 783.253 410.703 L 857.093 364.761 C 858.425 363.348 858.425 361.891 857.093 361.891 L 783.253 315.947 C 782.586 315.24 781.88 315.021 781.38 315.283 Z" style="stroke-width: 6.916; fill: rgba(0, 0, 0, 0.219608);" bx:origin="0.5 0.5"/>
</svg>