<svg viewBox="-243 2 1200 700" xmlns="http://www.w3.org/2000/svg" xmlns:bx="https://boxy-svg.com"><path d="M85.492 330.643l.075-.076.043-.045.015-.015.052-.053.01-.007.016-.018c.144-.094.167-.156.253-.24 14.32-14.533 22.572-34.444 22.881-55.015l22.83.165c1.085-.002 2.09-.673 2.47-1.665a2.75 2.75 0 0 0-.577-2.983l-37.318-37.876a2.659 2.659 0 0 0-3.786-.008l-36.87 37.417-.083.087a2.748 2.748 0 0 0 0 3.846 2.672 2.672 0 0 0 2.593.71l22.497.14c-.235 13.218-5.383 25.56-14.873 35.185-19.472 19.529-51.097 19.437-70.764-.523-6.023 6.116-6.457 7.111-19.696 20.547 30.269 30.72 79.673 30.914 110.232.427m-112.33-111.505l-.081.077-.04.045-.017.018-.046.048-.012.012-.016.02c-.147.078-.162.148-.245.23-14.328 14.541-22.58 34.431-22.886 55.008l-22.827-.157c-1.092 0-2.093.678-2.475 1.67a2.751 2.751 0 0 0 .573 2.973l37.324 37.884a2.655 2.655 0 0 0 3.786 0l36.857-37.408.087-.088a2.749 2.749 0 0 0 0-3.845 2.599 2.599 0 0 0-2.58-.694l-22.504-.16c.223-13.214 5.383-25.545 14.87-35.173 19.47-19.544 51.096-19.445 70.757.509 5.89-5.975 13.213-13.974 19.69-20.55-30.25-30.702-79.655-30.902-110.215-.42m544.393 220.517l.075-.076.043-.045.015-.015.053-.053.01-.007.016-.018c.144-.095.167-.156.253-.24 14.32-14.533 22.571-34.444 22.88-55.015l22.83.165c1.085-.002 2.09-.673 2.47-1.665a2.75 2.75 0 0 0-.576-2.983l-37.318-37.876a2.659 2.659 0 0 0-3.786-.008l-36.87 37.417-.083.086a2.748 2.748 0 0 0 0 3.847 2.672 2.672 0 0 0 2.593.71l22.496.14c-.235 13.218-5.382 25.56-14.872 35.185-19.473 19.529-51.098 19.437-70.765-.523-6.023 6.115-6.457 7.111-19.696 20.547 30.269 30.72 79.673 30.914 110.232.427m-112.33-111.505l-.081.077-.04.045-.017.018-.046.048-.012.012-.015.02c-.148.078-.163.148-.246.23-14.328 14.541-22.579 34.431-22.885 55.008l-22.828-.157c-1.092 0-2.093.678-2.475 1.67a2.751 2.751 0 0 0 .574 2.973l37.324 37.884a2.655 2.655 0 0 0 3.786 0l36.856-37.408.088-.088a2.749 2.749 0 0 0 0-3.845 2.599 2.599 0 0 0-2.581-.694l-22.504-.16c.224-13.214 5.384-25.545 14.87-35.173 19.47-19.544 51.096-19.445 70.757.509 5.89-5.975 13.213-13.974 19.69-20.55-30.25-30.702-79.654-30.902-110.215-.42m548.372 27.162l.075-.076.043-.045.015-.015.052-.053.011-.007.016-.018c.144-.094.167-.156.253-.24 14.32-14.533 22.571-34.444 22.88-55.015l22.83.165c1.085-.002 2.09-.672 2.47-1.665a2.75 2.75 0 0 0-.577-2.983l-37.318-37.876a2.659 2.659 0 0 0-3.785-.008l-36.87 37.417-.084.087a2.748 2.748 0 0 0 0 3.846 2.672 2.672 0 0 0 2.593.71l22.497.14c-.235 13.218-5.382 25.56-14.873 35.185-19.472 19.529-51.097 19.437-70.764-.523-6.023 6.116-6.457 7.111-19.696 20.547 30.269 30.72 79.673 30.914 110.232.427m-112.33-111.505l-.081.078-.04.044-.017.018-.046.048-.012.012-.015.02c-.148.078-.163.148-.246.23-14.328 14.541-22.579 34.431-22.886 55.008l-22.827-.157c-1.092 0-2.093.678-2.475 1.671a2.751 2.751 0 0 0 .574 2.972l37.324 37.884a2.655 2.655 0 0 0 3.786 0l36.856-37.408.087-.088a2.749 2.749 0 0 0 0-3.845 2.599 2.599 0 0 0-2.58-.693l-22.504-.16c.224-13.215 5.384-25.546 14.87-35.174 19.47-19.544 51.096-19.445 70.757.509 5.89-5.975 13.213-13.974 19.69-20.55-30.25-30.702-79.654-30.901-110.215-.42m-970.637-71.867c-.311.14-.518.498-.518 1.068v12.945h-83.458v22.804h83.458v13.66c0 .76.855 1.212 1.686.832l46.077-24.704c.831-.76.831-1.543 0-1.543l-46.077-24.705c-.416-.38-.856-.498-1.168-.357zm365.372 124.128c-.3.14-.499.498-.499 1.068v12.945h-80.441v22.804h80.441v13.66c0 .76.824 1.212 1.625.832l44.411-24.704c.8-.76.8-1.543 0-1.543l-44.411-24.705c-.401-.38-.825-.498-1.126-.357zM281.86 404.28c-.323.14-.537.498-.537 1.068v12.945h-86.476v22.804h86.476v13.66c0 .76.886 1.212 1.747.832l47.743-24.704c.86-.76.86-1.543 0-1.543l-47.743-24.705c-.431-.38-.887-.498-1.21-.357zm431.707-178.235c-.289.14-.481.498-.481 1.068v12.945h-77.423v22.804h77.423v13.66c0 .76.794 1.212 1.565.832l42.745-24.704c.77-.76.77-1.543 0-1.543l-42.745-24.705c-.386-.38-.795-.498-1.084-.357zm-38.773 112.988c-.293.14-.487.498-.487 1.068v12.945h-78.429v22.804h78.429v13.66c0 .76.804 1.212 1.585.832l43.301-24.704c.78-.76.78-1.543 0-1.543l-43.301-24.705c-.391-.38-.805-.498-1.098-.357z" bx:origin="0.5 0.5"/></svg>