<svg viewBox="-243 2 1200 700" xmlns="http://www.w3.org/2000/svg" xmlns:bx="https://boxy-svg.com"><path d="M136.067 378.177l.11-.11.062-.064.023-.021.077-.075.015-.01.023-.025c.21-.136.243-.222.37-.341 20.925-20.703 32.982-49.064 33.434-78.367l33.36.235c1.586-.002 3.055-.958 3.61-2.372.602-1.443.309-3.116-.842-4.249l-54.532-53.952c-1.531-1.513-4.023-1.503-5.533-.01l-53.878 53.298-.12.123a3.843 3.843 0 0 0 0 5.48 3.974 3.974 0 0 0 3.789 1.01l32.872.198c-.342 18.83-7.864 36.41-21.732 50.12-28.455 27.817-74.667 27.687-103.406-.744-8.802 8.71-9.435 10.13-28.782 29.267 44.231 43.759 116.424 44.035 161.08.609M-28.078 219.345l-.118.11-.059.064-.024.026-.068.068-.018.017-.023.028c-.215.111-.236.21-.359.329-20.936 20.712-32.993 49.044-33.441 78.355l-33.358-.225c-1.595 0-3.058.966-3.617 2.38a3.848 3.848 0 0 0 .839 4.234l54.541 53.963a3.95 3.95 0 0 0 5.532 0l53.857-53.285.129-.126a3.847 3.847 0 0 0 0-5.477 3.865 3.865 0 0 0-3.771-.987l-32.885-.228c.327-18.823 7.867-36.388 21.73-50.103 28.45-27.838 74.665-27.697 103.395.726 8.607-8.51 19.309-19.904 28.774-29.272-44.206-43.734-116.4-44.018-161.056-.597m-130.261-47.287c-.498.261-.83.926-.83 1.986v24.074h-133.747v42.409h133.747v25.404c0 1.413 1.37 2.254 2.702 1.547l73.841-45.942c1.332-1.413 1.332-2.87 0-2.87l-73.841-45.944c-.667-.707-1.372-.926-1.872-.664zm799.967 391.989l.11-.109.063-.065.023-.02.076-.075.015-.01.023-.026c.21-.135.243-.221.37-.34 20.925-20.704 32.982-49.065 33.435-78.368l33.36.235c1.585-.001 3.054-.957 3.61-2.372.602-1.443.308-3.116-.843-4.248l-54.532-53.952c-1.53-1.514-4.022-1.503-5.533-.011l-53.877 53.298-.121.123a3.843 3.843 0 0 0 0 5.48 3.974 3.974 0 0 0 3.789 1.011l32.873.198c-.343 18.83-7.865 36.409-21.733 50.12-28.455 27.817-74.667 27.687-103.406-.745-8.802 8.71-9.435 10.13-28.782 29.267 44.232 43.76 116.425 44.035 161.08.61M477.483 405.215l-.118.11-.058.064-.025.027-.068.067-.017.018-.024.027c-.214.112-.236.211-.358.33-20.937 20.712-32.994 49.043-33.442 78.354l-33.358-.224c-1.595 0-3.058.966-3.616 2.38a3.848 3.848 0 0 0 .838 4.234l54.541 53.963a3.95 3.95 0 0 0 5.532 0l53.857-53.285.13-.126a3.847 3.847 0 0 0 0-5.477 3.865 3.865 0 0 0-3.772-.987l-32.885-.229c.327-18.823 7.867-36.387 21.73-50.102 28.45-27.838 74.666-27.698 103.395.725 8.608-8.51 19.309-19.904 28.774-29.272-44.206-43.734-116.399-44.018-161.056-.597m-185.96 25.917c-.498.261-.83.926-.83 1.986v24.074H156.947v42.409h133.746v25.404c0 1.413 1.371 2.254 2.703 1.547l73.84-45.942c1.332-1.413 1.332-2.87 0-2.87l-73.84-45.944c-.668-.707-1.373-.926-1.873-.664zm816.384-23.042l.11-.108.062-.065.023-.021.076-.075.015-.01.023-.026c.21-.135.244-.221.37-.34 20.926-20.703 32.983-49.064 33.435-78.367l33.36.235c1.586-.002 3.054-.958 3.61-2.372.602-1.443.309-3.116-.842-4.249l-54.532-53.952c-1.531-1.514-4.023-1.503-5.534-.01l-53.877 53.297-.12.124a3.843 3.843 0 0 0 0 5.48 3.974 3.974 0 0 0 3.788 1.01l32.873.198c-.342 18.83-7.865 36.409-21.733 50.12-28.454 27.817-74.667 27.687-103.405-.744-8.802 8.71-9.435 10.129-28.783 29.267 44.232 43.759 116.425 44.035 161.08.609M943.762 249.259l-.119.11-.058.063-.024.027-.068.068-.018.017-.023.028c-.215.111-.237.21-.359.329-20.936 20.712-32.993 49.044-33.442 78.354l-33.357-.224c-1.595 0-3.059.966-3.617 2.38a3.848 3.848 0 0 0 .838 4.234l54.542 53.963a3.95 3.95 0 0 0 5.532 0l53.857-53.285.129-.126a3.847 3.847 0 0 0 0-5.477 3.865 3.865 0 0 0-3.772-.987l-32.885-.228c.328-18.823 7.868-36.388 21.73-50.103 28.451-27.838 74.666-27.697 103.395.726 8.608-8.511 19.31-19.904 28.774-29.272-44.205-43.734-116.399-44.018-161.055-.597m-107.981-99.803c-.498.261-.83.926-.83 1.986v24.074H701.204v42.409h133.747v25.404c0 1.413 1.37 2.254 2.702 1.547l73.841-45.942c1.332-1.413 1.332-2.87 0-2.87l-73.841-45.944c-.667-.707-1.372-.926-1.872-.664zM401.036 281.864c-.498.261-.83.926-.83 1.986v24.074H266.46v42.409h133.746v25.404c0 1.413 1.371 2.254 2.703 1.547l73.84-45.942c1.332-1.413 1.332-2.87 0-2.87l-73.84-45.944c-.668-.707-1.373-.926-1.873-.664zm380.344 33.419c-.497.261-.83.926-.83 1.986v24.074H646.803v42.409H780.55v25.404c0 1.413 1.37 2.254 2.703 1.547l73.84-45.942c1.332-1.413 1.332-2.87 0-2.87l-73.84-45.944c-.667-.707-1.373-.926-1.873-.664z" bx:origin="0.5 0.5" fill="rgba(0,0,0,.219608)"/></svg>