<svg width="256" height="256" viewBox="0 0 256 256" xmlns="http://www.w3.org/2000/svg"><path d="M189.393 17.004c11.012-13.263 26.323-13.328 26.323-13.328s2.277 12.47-8.665 24.483c-11.681 12.827-24.96 10.728-24.96 10.728s-2.492-10.088 7.302-21.883zm-5.9 30.617c5.665 0 16.18-7.116 29.868-7.116 23.558 0 32.827 15.318 32.827 15.318s-18.127 8.468-18.127 29.017c0 23.182 22.582 31.17 22.582 31.17s-15.786 40.597-37.108 40.597c-9.792 0-17.406-6.03-27.725-6.03-10.513 0-20.949 6.255-27.745 6.255-19.47 0-44.067-38.51-44.067-69.467 0-30.455 20.82-46.433 40.348-46.433 12.696 0 22.547 6.69 29.147 6.69z" fill="#999"/><path d="M64.745 189.198c5.612 0 10.163 4.342 10.163 9.698v41.602c0 5.356-4.55 9.698-10.163 9.698-5.612 0-10.162-4.342-10.162-9.698v-41.602c0-5.356 4.55-9.698 10.162-9.698z" fill="#a4c639"/><path d="M41.544 139.18c-.033.368-.063.74-.063 1.116v63.03c0 6.78 5.623 12.24 12.603 12.24h67.17c6.98 0 12.603-5.46 12.603-12.24v-63.03c0-.376-.014-.748-.047-1.115H41.544z" fill="#a4c639"/><path d="M110.594 189.198c5.613 0 10.163 4.342 10.163 9.698v41.602c0 5.356-4.55 9.698-10.163 9.698-5.612 0-10.162-4.342-10.162-9.698v-41.602c0-5.356 4.55-9.698 10.162-9.698zM25.153 144.79c5.612 0 10.162 4.343 10.162 9.699v41.602c0 5.356-4.55 9.698-10.162 9.698-5.613 0-10.163-4.342-10.163-9.698v-41.602c0-5.356 4.55-9.698 10.163-9.698zm125.034 0c5.612 0 10.162 4.343 10.162 9.699v41.602c0 5.356-4.55 9.698-10.162 9.698-5.613 0-10.163-4.342-10.163-9.698v-41.602c0-5.356 4.55-9.698 10.163-9.698zM41.84 135.04c.284-19.36 17.991-35.235 40.722-37.327h10.213c22.732 2.093 40.439 17.968 40.721 37.327H41.841z" fill="#a4c639"/><path d="M-5044.266 2078.784l15.022 26.021m103.511-26.021l-15.023 26.021" fill="none" stroke="#a4c639" stroke-width="3" stroke-linecap="round" stroke-linejoin="round" transform="matrix(.71363 0 0 .681 3645.105 -1319.799)"/><path d="M74.007 117.698c.009 2.706-2.339 4.907-5.243 4.914-2.903.008-5.264-2.18-5.272-4.887v-.027c-.008-2.707 2.339-4.907 5.243-4.914 2.903-.008 5.263 2.18 5.272 4.887v.027zm39.247 0c.008 2.706-2.339 4.907-5.243 4.914-2.903.008-5.264-2.18-5.273-4.887v-.027c-.007-2.707 2.34-4.907 5.243-4.914 2.904-.008 5.264 2.18 5.273 4.887v.027z" fill="#fff"/></svg>