<svg viewBox="0 0 270 256" xmlns="http://www.w3.org/2000/svg" xmlns:bx="https://boxy-svg.com"><path d="M104.718 196.835s-9.434 5.644 6.717 7.554c19.564 2.296 29.563 1.967 51.125-2.23 0 0 5.669 3.656 13.585 6.822-48.333 21.307-109.39-1.234-71.427-12.146m-5.905-27.803s-10.584 8.057 5.58 9.776c20.899 2.218 37.405 2.399 65.966-3.257 0 0 3.951 4.119 10.163 6.372-58.442 17.576-123.531 1.386-81.709-12.891" bx:origin="0.5 0.5" fill="#5382a1"/><path d="M148.604 121.867c11.909 14.103-3.13 26.795-3.13 26.795s30.241-16.057 16.352-36.164c-12.969-18.751-22.917-28.068 30.932-60.19.001-.001-84.525 21.713-44.154 69.559" bx:origin="0.5 0.5" fill="#e76f00"/><path d="M212.53 217.401s6.983 5.919-7.688 10.495c-27.901 8.694-116.122 11.319-140.629.348-8.809-3.943 7.711-9.414 12.908-10.561 5.419-1.209 8.516-.984 8.516-.984-9.797-7.098-63.325 13.938-27.19 19.964 98.549 16.438 179.647-7.402 154.083-19.262m-103.274-77.177s-44.875 10.963-15.89 14.943c12.238 1.686 36.633 1.304 59.354-.654 18.572-1.611 37.22-5.037 37.22-5.037s-6.548 2.885-11.285 6.211c-45.57 12.328-133.601 6.593-108.258-6.017 21.433-10.655 38.859-9.446 38.859-9.446m80.5 46.281c46.323-24.759 24.906-48.553 9.957-45.346-3.665.784-5.299 1.464-5.299 1.464s1.361-2.192 3.957-3.141c29.575-10.694 52.32 31.542-9.547 48.271 0 0 .718-.658.932-1.248" bx:origin="0.5 0.5" fill="#5382a1"/><path d="M161.826.438s25.655 26.395-24.33 66.986c-40.086 32.559-9.142 51.123-.018 72.335-23.397-21.714-40.567-40.828-29.049-58.617 16.908-26.115 63.75-38.776 53.397-80.704" bx:origin="0.5 0.5" fill="#e76f00"/><path d="M113.807 253.595c44.466 2.928 112.746-1.624 114.363-23.263 0 0-3.107 8.202-36.747 14.718-37.952 7.345-84.76 6.489-112.523 1.781.001-.002 5.685 4.837 34.907 6.764" bx:origin="0.5 0.5" fill="#5382a1"/></svg>