<?xml version="1.0" encoding="utf-8"?>
<svg id="Layer_1" style="enable-background:new 6.527 4.399 290.829 540.906;" x="0px" y="0px" viewBox="0 0 270 256" xmlns="http://www.w3.org/2000/svg" xmlns:bx="https://boxy-svg.com">
  <path style="fill: rgb(83, 130, 161); stroke-width: 0.676;" d="M 104.718 196.835 C 104.718 196.835 95.284 202.479 111.435 204.389 C 130.999 206.685 140.998 206.356 162.56 202.159 C 162.56 202.159 168.229 205.815 176.145 208.981 C 127.812 230.288 66.755 207.747 104.718 196.835" bx:origin="0.5 0.5"/>
  <path style="fill: rgb(83, 130, 161); stroke-width: 0.676;" d="M 98.813 169.032 C 98.813 169.032 88.229 177.089 104.393 178.808 C 125.292 181.026 141.798 181.207 170.359 175.551 C 170.359 175.551 174.31 179.67 180.522 181.923 C 122.08 199.499 56.991 183.309 98.813 169.032" bx:origin="0.5 0.5"/>
  <path style="fill: rgb(231, 111, 0); stroke-width: 0.676;" d="M 148.604 121.867 C 160.513 135.97 145.474 148.662 145.474 148.662 C 145.474 148.662 175.715 132.605 161.826 112.498 C 148.857 93.747 138.909 84.43 192.758 52.308 C 192.759 52.307 108.233 74.021 148.604 121.867" bx:origin="0.5 0.5"/>
  <path style="fill: rgb(83, 130, 161); stroke-width: 0.676;" d="M 212.53 217.401 C 212.53 217.401 219.513 223.32 204.842 227.896 C 176.941 236.59 88.72 239.215 64.213 228.244 C 55.404 224.301 71.924 218.83 77.121 217.683 C 82.54 216.474 85.637 216.699 85.637 216.699 C 75.84 209.601 22.312 230.637 58.447 236.663 C 156.996 253.101 238.094 229.261 212.53 217.401" bx:origin="0.5 0.5"/>
  <path style="fill: rgb(83, 130, 161); stroke-width: 0.676;" d="M 109.256 140.224 C 109.256 140.224 64.381 151.187 93.366 155.167 C 105.604 156.853 129.999 156.471 152.72 154.513 C 171.292 152.902 189.94 149.476 189.94 149.476 C 189.94 149.476 183.392 152.361 178.655 155.687 C 133.085 168.015 45.054 162.28 70.397 149.67 C 91.83 139.015 109.256 140.224 109.256 140.224" bx:origin="0.5 0.5"/>
  <path style="fill: rgb(83, 130, 161); stroke-width: 0.676;" d="M 189.756 186.505 C 236.079 161.746 214.662 137.952 199.713 141.159 C 196.048 141.943 194.414 142.623 194.414 142.623 C 194.414 142.623 195.775 140.431 198.371 139.482 C 227.946 128.788 250.691 171.024 188.824 187.753 C 188.824 187.753 189.542 187.095 189.756 186.505" bx:origin="0.5 0.5"/>
  <path style="fill: rgb(231, 111, 0); stroke-width: 0.676;" d="M 161.826 0.438 C 161.826 0.438 187.481 26.833 137.496 67.424 C 97.41 99.983 128.354 118.547 137.478 139.759 C 114.081 118.045 96.911 98.931 108.429 81.142 C 125.337 55.027 172.179 42.366 161.826 0.438" bx:origin="0.5 0.5"/>
  <path style="fill: rgb(83, 130, 161); stroke-width: 0.676;" d="M 113.807 253.595 C 158.273 256.523 226.553 251.971 228.17 230.332 C 228.17 230.332 225.063 238.534 191.423 245.05 C 153.471 252.395 106.663 251.539 78.9 246.831 C 78.901 246.829 84.585 251.668 113.807 253.595" bx:origin="0.5 0.5"/>
</svg>