<?xml version="1.0" encoding="utf-8"?>
<svg width="256px" height="270px" viewBox="0 0 257 270" xmlns="http://www.w3.org/2000/svg" xmlns:bx="https://boxy-svg.com">
  <g id="logo1" transform="matrix(0.97098, 0, 0, 0.942164, 4.024646, 0.077577)">
    <path style="fill: #B3B3B3" d="M127.606036,1.34131737 L0.849245509,45.9497006 L20.8800958,212.021653 L127.740934,270.754491 L235.152096,211.22606 L255.175281,45.1602395 L127.606036,1.34131737 Z"/>
    <path style="fill: #A6120D" d="M242.531641,54.7579401 L127.31018,15.4657725 L127.31018,256.722012 L223.871234,203.280862 L242.531641,54.7579401 Z"/>
    <path style="fill: #DD1B16" d="M15.0733413,55.4661557 L32.2376048,203.990611 L127.308647,256.722012 L127.308647,15.4611737 L15.0733413,55.4661557 Z"/>
    <path style="fill: #F2F2F2" d="M159.026587,143.89806 L127.31018,158.729198 L93.881485,158.729198 L78.1673772,198.033629 L48.9389222,198.574754 L127.31018,24.226491 L159.026587,143.89806 L159.026587,143.89806 Z M155.960719,136.431138 L127.520192,80.128 L104.192,135.462323 L127.308647,135.462323 L155.960719,136.431138 L155.960719,136.431138 Z"/>
    <path style="fill: #B3B3B3" d="M127.308647,24.226491 L127.518659,80.128 L153.989365,135.505246 L127.368431,135.505246 L127.308647,158.69394 L164.118994,158.729198 L181.323114,198.580886 L209.289964,199.099018 L127.308647,24.226491 Z"/>
  </g>
  <g id="logo2">
    <path style="fill: rgb(83, 130, 161); stroke-width: 0.676;" d="M 104.718 196.835 C 104.718 196.835 95.284 202.479 111.435 204.389 C 130.999 206.685 140.998 206.356 162.56 202.159 C 162.56 202.159 168.229 205.815 176.145 208.981 C 127.812 230.288 66.755 207.747 104.718 196.835"/>
    <path style="fill: rgb(83, 130, 161); stroke-width: 0.676;" d="M 98.813 169.032 C 98.813 169.032 88.229 177.089 104.393 178.808 C 125.292 181.026 141.798 181.207 170.359 175.551 C 170.359 175.551 174.31 179.67 180.522 181.923 C 122.08 199.499 56.991 183.309 98.813 169.032"/>
    <path style="fill: rgb(231, 111, 0); stroke-width: 0.676;" d="M 148.604 121.867 C 160.513 135.97 145.474 148.662 145.474 148.662 C 145.474 148.662 175.715 132.605 161.826 112.498 C 148.857 93.747 138.909 84.43 192.758 52.308 C 192.759 52.307 108.233 74.021 148.604 121.867"/>
    <path style="fill: rgb(83, 130, 161); stroke-width: 0.676;" d="M 212.53 217.401 C 212.53 217.401 219.513 223.32 204.842 227.896 C 176.941 236.59 88.72 239.215 64.213 228.244 C 55.404 224.301 71.924 218.83 77.121 217.683 C 82.54 216.474 85.637 216.699 85.637 216.699 C 75.84 209.601 22.312 230.637 58.447 236.663 C 156.996 253.101 238.094 229.261 212.53 217.401"/>
    <path style="fill: rgb(83, 130, 161); stroke-width: 0.676;" d="M 109.256 140.224 C 109.256 140.224 64.381 151.187 93.366 155.167 C 105.604 156.853 129.999 156.471 152.72 154.513 C 171.292 152.902 189.94 149.476 189.94 149.476 C 189.94 149.476 183.392 152.361 178.655 155.687 C 133.085 168.015 45.054 162.28 70.397 149.67 C 91.83 139.015 109.256 140.224 109.256 140.224"/>
    <path style="fill: rgb(83, 130, 161); stroke-width: 0.676;" d="M 189.756 186.505 C 236.079 161.746 214.662 137.952 199.713 141.159 C 196.048 141.943 194.414 142.623 194.414 142.623 C 194.414 142.623 195.775 140.431 198.371 139.482 C 227.946 128.788 250.691 171.024 188.824 187.753 C 188.824 187.753 189.542 187.095 189.756 186.505"/>
    <path style="fill: rgb(231, 111, 0); stroke-width: 0.676;" d="M 161.826 0.438 C 161.826 0.438 187.481 26.833 137.496 67.424 C 97.41 99.983 128.354 118.547 137.478 139.759 C 114.081 118.045 96.911 98.931 108.429 81.142 C 125.337 55.027 172.179 42.366 161.826 0.438"/>
    <path style="fill: rgb(83, 130, 161); stroke-width: 0.676;" d="M 113.807 253.595 C 158.273 256.523 226.553 251.971 228.17 230.332 C 228.17 230.332 225.063 238.534 191.423 245.05 C 153.471 252.395 106.663 251.539 78.9 246.831 C 78.901 246.829 84.585 251.668 113.807 253.595"/>
  </g>
  <g id="logo3">
    <path style="fill: rgb(153, 153, 153); stroke-width: 0.302;" d="M 183.98 17.824 C 196.885 1.898 214.829 1.82 214.829 1.82 C 214.829 1.82 217.497 16.794 204.678 31.219 C 190.985 46.62 175.423 44.1 175.423 44.1 C 175.423 44.1 172.503 31.988 183.98 17.824 Z" bx:origin="0.5 0.5"/>
    <path style="fill: rgb(153, 153, 153); stroke-width: 0.302;" d="M 177.065 54.589 C 183.705 54.589 196.029 46.044 212.07 46.044 C 239.68 46.044 250.543 64.438 250.543 64.438 C 250.543 64.438 229.298 74.608 229.298 99.282 C 229.298 127.117 255.763 136.709 255.763 136.709 C 255.763 136.709 237.263 185.459 212.276 185.459 C 200.798 185.459 191.875 178.219 179.782 178.219 C 167.458 178.219 155.23 185.729 147.265 185.729 C 124.447 185.73 95.62 139.486 95.62 102.314 C 95.62 65.742 120.02 46.557 142.906 46.557 C 157.784 46.557 169.331 54.589 177.065 54.589 Z" bx:origin="0.5 0.5"/>
    <path id="c-4-14-6-4-9" style="fill:#A4C639;" d="M 57.752 184.71 L 57.752 184.71 C 64.195 184.71 69.418 189.757 69.418 195.981 L 69.418 244.331 C 69.418 250.555 64.195 255.601 57.752 255.601 L 57.752 255.601 C 51.31 255.601 46.087 250.555 46.087 244.331 L 46.087 195.981 C 46.087 189.757 51.31 184.71 57.752 184.71 Z" bx:origin="0.5 0.5"/>
    <path id="rect8719-3-2-7-4-3" style="fill:#A4C639;" d="M 31.12 126.581 C 31.081 127.008 31.048 127.44 31.048 127.877 L 31.048 201.131 C 31.048 209.009 37.502 215.355 45.514 215.355 L 122.618 215.355 C 130.63 215.355 137.085 209.009 137.085 201.131 L 137.085 127.877 C 137.085 127.44 137.069 127.007 137.031 126.581 L 31.12 126.581 L 31.12 126.581 Z" bx:origin="0.5 0.5"/>
    <path id="c-4-8-9-1-4-9" style="fill:#A4C639;" d="M 110.382 184.71 L 110.382 184.71 C 116.824 184.71 122.048 189.757 122.048 195.981 L 122.048 244.331 C 122.048 250.555 116.824 255.601 110.382 255.601 L 110.382 255.601 C 103.94 255.601 98.717 250.555 98.717 244.331 L 98.717 195.981 C 98.717 189.757 103.94 184.71 110.382 184.71 Z" bx:origin="0.5 0.5"/>
    <path id="c-4-9-2-9-2-9" style="fill:#A4C639;" d="M 12.305 133.1 L 12.305 133.1 C 18.746 133.1 23.97 138.147 23.97 144.371 L 23.97 192.721 C 23.97 198.945 18.746 203.992 12.305 203.992 L 12.305 203.992 C 5.862 203.992 0.639 198.945 0.639 192.721 L 0.639 144.371 C 0.638 138.147 5.861 133.1 12.305 133.1 Z" bx:origin="0.5 0.5"/>
    <path id="c-4-1-7-3-8-4" style="fill:#A4C639;" d="M 155.83 133.1 L 155.83 133.1 C 162.272 133.1 167.495 138.147 167.495 144.371 L 167.495 192.721 C 167.495 198.945 162.272 203.992 155.83 203.992 L 155.83 203.992 C 149.387 203.992 144.164 198.945 144.164 192.721 L 144.164 144.371 C 144.164 138.147 149.387 133.1 155.83 133.1 Z" bx:origin="0.5 0.5"/>
    <path id="path4090-4-4-4-8" style="fill:#A4C639;" d="M 31.461 121.769 C 31.785 99.269 52.112 80.819 78.204 78.388 L 89.928 78.388 C 116.021 80.82 136.347 99.27 136.671 121.769 L 31.461 121.769 Z" bx:origin="0.5 0.5"/>
    <path id="path4160-1-3-5-6" style="fill:none;stroke:#A4C639;stroke-width:3;stroke-linecap:round;stroke-linejoin:round;" d="M 35.518 76.216 L 47.824 96.81" bx:origin="0.5 0.5"/>
    <path id="path4160-9-0-1-7-9" style="fill:none;stroke:#A4C639;stroke-width:3;stroke-linecap:round;stroke-linejoin:round;" d="M 132.616 76.216 L 120.31 96.81" bx:origin="0.5 0.5"/>
    <path id="path4109-7-3-2-5-7-2-0" style="fill:#FFFFFF;" d="M 68.395 101.604 C 68.405 104.749 65.711 107.306 62.377 107.315 C 59.045 107.324 56.335 104.781 56.325 101.636 C 56.325 101.625 56.325 101.615 56.325 101.604 C 56.316 98.458 59.01 95.902 62.343 95.893 C 65.676 95.884 68.385 98.427 68.395 101.573 C 68.395 101.583 68.395 101.594 68.395 101.604 Z" bx:origin="0.5 0.5"/>
    <path id="path4109-0-0-3-1-5-0-0-0" style="fill:#FFFFFF;" d="M 113.446 101.604 C 113.456 104.749 110.762 107.306 107.428 107.315 C 104.096 107.324 101.386 104.781 101.376 101.636 C 101.376 101.625 101.376 101.615 101.376 101.604 C 101.367 98.458 104.061 95.902 107.394 95.893 C 110.726 95.884 113.436 98.427 113.446 101.573 C 113.446 101.583 113.446 101.594 113.446 101.604 Z" bx:origin="0.5 0.5"/>
  </g>
</svg>