<svg width="256" height="270" viewBox="-1 0 257 256" xmlns="http://www.w3.org/2000/svg" xmlns:bx="https://boxy-svg.com"><path d="M104.718 196.835s-9.434 5.644 6.717 7.554c19.564 2.296 29.563 1.967 51.125-2.23 0 0 5.669 3.656 13.585 6.822-48.333 21.307-109.39-1.234-71.427-12.146m-5.905-27.803s-10.584 8.057 5.58 9.776c20.899 2.218 37.405 2.399 65.966-3.257 0 0 3.951 4.119 10.163 6.372-58.442 17.576-123.531 1.386-81.709-12.891" fill="#5382a1"/><path d="M148.604 121.867c11.909 14.103-3.13 26.795-3.13 26.795s30.241-16.057 16.352-36.164c-12.969-18.751-22.917-28.068 30.932-60.19.001-.001-84.525 21.713-44.154 69.559" fill="#e76f00"/><path d="M212.53 217.401s6.983 5.919-7.688 10.495c-27.901 8.694-116.122 11.319-140.629.348-8.809-3.943 7.711-9.414 12.908-10.561 5.419-1.209 8.516-.984 8.516-.984-9.797-7.098-63.325 13.938-27.19 19.964 98.549 16.438 179.647-7.402 154.083-19.262m-103.274-77.177s-44.875 10.963-15.89 14.943c12.238 1.686 36.633 1.304 59.354-.654 18.572-1.611 37.22-5.037 37.22-5.037s-6.548 2.885-11.285 6.211c-45.57 12.328-133.601 6.593-108.258-6.017 21.433-10.655 38.859-9.446 38.859-9.446m80.5 46.281c46.323-24.759 24.906-48.553 9.957-45.346-3.665.784-5.299 1.464-5.299 1.464s1.361-2.192 3.957-3.141c29.575-10.694 52.32 31.542-9.547 48.271 0 0 .718-.658.932-1.248" fill="#5382a1"/><path d="M161.826.438s25.655 26.395-24.33 66.986c-40.086 32.559-9.142 51.123-.018 72.335-23.397-21.714-40.567-40.828-29.049-58.617 16.908-26.115 63.75-38.776 53.397-80.704" fill="#e76f00"/><path d="M113.807 253.595c44.466 2.928 112.746-1.624 114.363-23.263 0 0-3.107 8.202-36.747 14.718-37.952 7.345-84.76 6.489-112.523 1.781.001-.002 5.685 4.837 34.907 6.764" fill="#5382a1"/><path d="M0 0h256v256H0V0z" fill="#f7df1e"/><path d="M67.312 213.932l19.59-11.856c3.78 6.701 7.218 12.371 15.465 12.371 7.905 0 12.89-3.092 12.89-15.12v-81.798h24.057v82.138c0 24.917-14.606 36.259-35.916 36.259-19.245 0-30.416-9.967-36.087-21.996m85.07-2.576l19.588-11.341c5.157 8.421 11.859 14.607 23.715 14.607 9.969 0 16.325-4.984 16.325-11.858 0-8.248-6.53-11.17-17.528-15.98l-6.013-2.58c-17.357-7.387-28.87-16.667-28.87-36.257 0-18.044 13.747-31.792 35.228-31.792 15.294 0 26.292 5.328 34.196 19.247l-18.732 12.03c-4.125-7.389-8.591-10.31-15.465-10.31-7.046 0-11.514 4.468-11.514 10.31 0 7.217 4.468 10.14 14.778 14.608l6.014 2.577c20.45 8.765 31.963 17.7 31.963 37.804 0 21.654-17.012 33.51-39.867 33.51-22.339 0-36.774-10.654-43.819-24.574"/><path d="M183.98 17.824C196.885 1.898 214.829 1.82 214.829 1.82s2.668 14.974-10.151 29.399C190.985 46.62 175.423 44.1 175.423 44.1s-2.92-12.112 8.557-26.276zm-6.915 36.765c6.64 0 18.964-8.545 35.005-8.545 27.61 0 38.473 18.394 38.473 18.394s-21.245 10.17-21.245 34.844c0 27.835 26.465 37.427 26.465 37.427s-18.5 48.75-43.487 48.75c-11.478 0-20.401-7.24-32.494-7.24-12.324 0-24.552 7.51-32.517 7.51-22.818.001-51.645-46.243-51.645-83.415 0-36.572 24.4-55.757 47.286-55.757 14.878 0 26.425 8.032 34.159 8.032z" bx:origin="0.5 0.5" fill="#999"/><path d="M57.752 184.71c6.443 0 11.666 5.047 11.666 11.271v48.35c0 6.224-5.223 11.27-11.666 11.27-6.442 0-11.665-5.046-11.665-11.27v-48.35c0-6.224 5.223-11.271 11.665-11.271z" bx:origin="0.5 0.5" fill="#a4c639"/><path d="M31.12 126.581c-.039.427-.072.859-.072 1.296v73.254c0 7.878 6.454 14.224 14.466 14.224h77.104c8.012 0 14.467-6.346 14.467-14.224v-73.254c0-.437-.016-.87-.054-1.296H31.12z" bx:origin="0.5 0.5" fill="#a4c639"/><path d="M110.382 184.71c6.442 0 11.666 5.047 11.666 11.271v48.35c0 6.224-5.224 11.27-11.666 11.27s-11.665-5.046-11.665-11.27v-48.35c0-6.224 5.223-11.271 11.665-11.271zM12.305 133.1c6.441 0 11.665 5.047 11.665 11.271v48.35c0 6.224-5.224 11.271-11.665 11.271-6.443 0-11.666-5.047-11.666-11.271v-48.35C.638 138.147 5.861 133.1 12.305 133.1zm143.525 0c6.442 0 11.665 5.047 11.665 11.271v48.35c0 6.224-5.223 11.271-11.665 11.271-6.443 0-11.666-5.047-11.666-11.271v-48.35c0-6.224 5.223-11.271 11.666-11.271zM31.461 121.769c.324-22.5 20.651-40.95 46.743-43.381h11.724c26.093 2.432 46.419 20.882 46.743 43.381H31.461z" bx:origin="0.5 0.5" fill="#a4c639"/><path d="M35.518 76.216L47.824 96.81m84.792-20.594L120.31 96.81" bx:origin="0.5 0.5" fill="none" stroke="#a4c639" stroke-width="3" stroke-linecap="round" stroke-linejoin="round"/><path d="M68.395 101.604c.01 3.145-2.684 5.702-6.018 5.711-3.332.009-6.042-2.534-6.052-5.679v-.032c-.009-3.146 2.685-5.702 6.018-5.711 3.333-.009 6.042 2.534 6.052 5.68v.031zm45.051 0c.01 3.145-2.684 5.702-6.018 5.711-3.332.009-6.042-2.534-6.052-5.679v-.032c-.009-3.146 2.685-5.702 6.018-5.711 3.332-.009 6.042 2.534 6.052 5.68v.031z" bx:origin="0.5 0.5" fill="#fff"/></svg>