<svg viewBox="3.897 3.897 92.057 91.877" xmlns="http://www.w3.org/2000/svg" xmlns:bx="https://boxy-svg.com"><defs><radialGradient id="a" gradientUnits="userSpaceOnUse" cx="12.752" cy="84.96" r="17.457" spreadMethod="reflect" gradientTransform="matrix(1.1691 -.24728 .16247 .76817 -15.422 22.887)"><stop offset="0" stop-color="#fff700"/><stop offset="1" stop-color="#ea471a"/></radialGradient></defs><path d="M32.904 59.602a48.92 48.92 0 0 0 7.706 7.706l.461.369c6.938-3.025 13.207-6.243 18.806-9.65a63.555 63.555 0 0 1-17.694-17.693c-3.407 5.6-6.625 11.869-9.649 18.807.124.152.246.305.37.461z" fill="#1b75b5"/><path d="M92.161 22.421c1.618-4.565 2.563-9.32 2.835-14.27a2.787 2.787 0 0 0-2.935-2.935c-4.95.272-9.706 1.216-14.271 2.834a70.036 70.036 0 0 1 14.371 14.371z" fill="#064775"/><path d="M44.199 66.274c4.535-2.097 8.77-4.282 12.703-6.559l1.665 11.653c-7.881 6.565-15.761 13.134-23.642 19.7l-1.97-1.97c4.597-5.911 9.194-11.821 13.792-17.73-.85-1.697-1.7-3.396-2.548-5.094zm-3.404-23.563c-2.276 3.934-4.461 8.167-6.559 12.702l-5.094-2.546c-5.911 4.597-11.821 9.192-17.731 13.79l-1.97-1.97 19.701-23.641 11.653 1.665z" bx:origin="0.5 0.5" fill="#064775"/><path d="M76.539 8.513C63.774 13.422 52.537 23.68 42.828 39.288l.285.427a62.4 62.4 0 0 0 17.384 17.383l.428.285C76.531 47.674 86.79 36.437 91.7 23.671A68.963 68.963 0 0 0 76.539 8.513zm.768 26.132a8.301 8.301 0 1 1-11.74-11.74 8.301 8.301 0 0 1 11.74 11.74z" fill="#1b75b5"/><path d="M32.034 60.297l-7.88 3.94c.393.524.795 1.038 1.201 1.544-5.211 1.035-8.806 3.614-12.52 10.381 0 0 .897-.075 1.566-.332-6.088 8.331-2.407 7.474-9.4 18.958 6.603-4.107 11.65-2.946 17.271-9.437-1.047 1.853-.204 1.059-1.848 3.206 4.446-1.802 3.938-2.522 6.461-4.672-.847 1.666-.524 1.371-1.194 2.304 0 0 7.173-3.12 9.028-11.107.415.328.829.656 1.255.976 1.314-2.626 2.627-5.253 3.94-7.881a50.022 50.022 0 0 1-7.88-7.88zm-5.659 19.887c.595-.538.804-.712 1.313-1.747-1.515 1.336-2.276 2.505-4.946 3.624.988-1.334 1.546-1.563 2.177-2.712-3.378 4.028-6.412 3.308-10.378 5.859 4.202-7.132 2.641-7.553 6.301-12.726-.402.16-1.746 1.445-1.746 1.445 2.183-4.109 4.448-5.991 7.478-6.677a57.465 57.465 0 0 0 5.783 5.862c-1.184 4.861-5.982 7.072-5.982 7.072z" fill="url(#a)"/><path d="M24.889 64.389l7.043-3.49 7.36 7.391-3.46 7.011s-4.292-3.353-6.296-5.363c-1.623-1.628-4.647-5.549-4.647-5.549z" stroke="#1b75b5" fill="#1b75b5"/><rect x="-26.513" y="24.676" width="3.597" height="37.176" rx=".07" ry=".074" transform="rotate(45.362 -19.895 123.896) skewX(1.057)" fill="#064775"/><ellipse cx="71.432" cy="28.852" rx="8.468" ry="8.394" fill="#064775"/><ellipse cx="71.43" cy="28.778" rx="7.12" ry="6.82" fill="#d8d8d8"/><ellipse transform="matrix(.84173 -.5399 0 1.18803 2.104 38.24)" cx="78.23" cy="24.66" rx="2.28" ry="1.184" fill="#fff"/><path d="M76.513 8.552l1.454-.582s5.497 4.539 7.768 6.83c2.479 2.501 6.524 7.461 6.524 7.461l-.582 1.454s-4.606-5.816-7.387-8.62c-2.246-2.264-7.777-6.543-7.777-6.543z" bx:origin="0.5 0.5" stroke="rgba(0,0,0,0)" fill="#f74"/><path d="M42.159 40.391l.675-1.072s5.763 7.615 8.364 10.215c2.84 2.838 9.744 7.837 9.744 7.837l-1.077.683s-2.051-1.243-4.256-3.027c-2.19-1.772-4.454-3.911-6.041-5.496-1.341-1.339-2.576-2.783-4.469-5.108-1.737-2.134-2.94-4.032-2.94-4.032z" bx:origin="0.5 0.5" stroke="rgba(0,0,0,0)" fill="#f74" stroke-width="1.14"/></svg>